<svg width="18" height="14" viewBox="0 0 18 14" fill="none" xmlns="http://www.w3.org/2000/svg">
<path d="M15.4615 0.554688H2.53846C1.68879 0.554688 1 1.22626 1 2.05469V11.0547C1 11.8831 1.68879 12.5547 2.53846 12.5547H15.4615C16.3112 12.5547 17 11.8831 17 11.0547V2.05469C17 1.22626 16.3112 0.554688 15.4615 0.554688Z" fill="#126360"/>
<path d="M3 3.55469L9 7.55469L15 3.55469" fill="#126360"/>
<path d="M3 3.55469L9 7.55469L15 3.55469M15.4615 0.554688H2.53846C1.68879 0.554688 1 1.22626 1 2.05469V11.0547C1 11.8831 1.68879 12.5547 2.53846 12.5547H15.4615C16.3112 12.5547 17 11.8831 17 11.0547V2.05469C17 1.22626 16.3112 0.554688 15.4615 0.554688Z" stroke="#77D7D3" stroke-linecap="round" stroke-linejoin="round"/>
</svg>
