<svg width="48" height="36" viewBox="0 0 48 36" fill="none" xmlns="http://www.w3.org/2000/svg">
<path d="M38.0204 35.51C35.2511 35.51 32.8838 34.5273 30.9184 32.562C29.0424 30.5073 28.1044 28.006 28.1044 25.058C28.1044 19.5193 29.7124 14.5613 32.9284 10.184C36.2338 5.71733 40.0304 2.36733 44.3184 0.133998L44.8544 0C45.5691 0 45.9264 0.357331 45.9264 1.07199C45.9264 1.34 45.7924 1.608 45.5244 1.876C43.3804 3.752 41.7278 5.67266 40.5664 7.638C39.4051 9.514 38.8244 11.2113 38.8244 12.73C38.8244 14.338 39.6731 15.678 41.3704 16.75C43.4251 17.9113 44.9884 19.1173 46.0604 20.368C47.2218 21.6187 47.8024 23.3607 47.8024 25.594C47.8024 28.3633 46.8198 30.7307 44.8544 32.696C42.9784 34.572 40.7004 35.51 38.0204 35.51ZM10.0144 35.51C7.33442 35.51 5.01176 34.5273 3.04642 32.562C1.17042 30.5073 0.232422 28.006 0.232422 25.058C0.232422 19.5193 1.88509 14.5613 5.19042 10.184C8.49576 5.71733 12.2031 2.412 16.3124 0.267997C16.4911 0.178664 16.7144 0.133998 16.9824 0.133998C17.6078 0.133998 17.9204 0.491332 17.9204 1.206C17.9204 1.474 17.8311 1.69733 17.6524 1.876C15.5084 3.84133 13.8558 5.80666 12.6944 7.772C11.5331 9.648 10.9524 11.3007 10.9524 12.73C10.9524 14.7847 11.8011 16.1247 13.4984 16.75C15.4638 17.7327 16.9824 18.894 18.0544 20.234C19.2158 21.574 19.7964 23.3607 19.7964 25.594C19.7964 28.3633 18.8584 30.7307 16.9824 32.696C15.1064 34.572 12.7838 35.51 10.0144 35.51Z" fill="#2E4049"/>
</svg>
