<svg width="26" height="26" viewBox="0 0 26 26" fill="none" xmlns="http://www.w3.org/2000/svg">
<path d="M18.2682 2.75181C19.692 2.75591 21.0563 3.30238 22.0631 4.27189C23.0699 5.2414 23.6374 6.55515 23.6416 7.92624V18.274C23.6374 19.6451 23.0699 20.9588 22.0631 21.9283C21.0563 22.8978 19.692 23.4443 18.2682 23.4484H7.52247C6.09866 23.4443 4.73437 22.8978 3.72757 21.9283C2.72078 20.9588 2.15328 19.6451 2.14903 18.274V7.92624C2.15328 6.55515 2.72078 5.2414 3.72757 4.27189C4.73437 3.30238 6.09866 2.75591 7.52247 2.75181H18.2682ZM18.2682 0.682373H7.52247C3.38503 0.682373 0 3.94203 0 7.92624V18.274C0 22.2582 3.38503 25.5178 7.52247 25.5178H18.2682C22.4057 25.5178 25.7907 22.2582 25.7907 18.274V7.92624C25.7907 3.94203 22.4057 0.682373 18.2682 0.682373Z" fill="#2E4049"/>
<path d="M19.8817 7.92646C19.5629 7.92646 19.2512 7.83542 18.9861 7.66486C18.7211 7.4943 18.5145 7.25188 18.3925 6.96825C18.2705 6.68462 18.2385 6.37252 18.3007 6.07142C18.3629 5.77032 18.5164 5.49374 18.7419 5.27666C18.9673 5.05957 19.2545 4.91174 19.5672 4.85185C19.8799 4.79196 20.204 4.82269 20.4985 4.94018C20.7931 5.05766 21.0448 5.25661 21.2219 5.51187C21.3991 5.76713 21.4936 6.06724 21.4936 6.37424C21.494 6.5782 21.4527 6.78024 21.3718 6.96877C21.291 7.15729 21.1723 7.32858 21.0225 7.4728C20.8727 7.61702 20.6948 7.73134 20.4991 7.80919C20.3033 7.88704 20.0935 7.92689 19.8817 7.92646ZM12.8969 8.9609C13.7471 8.9609 14.5782 9.20367 15.2851 9.65852C15.992 10.1134 16.543 10.7599 16.8683 11.5162C17.1937 12.2726 17.2788 13.1049 17.1129 13.9079C16.9471 14.7109 16.5377 15.4484 15.9365 16.0273C15.3353 16.6063 14.5694 17.0005 13.7355 17.1602C12.9017 17.3199 12.0373 17.238 11.2519 16.9247C10.4664 16.6114 9.79504 16.0808 9.3227 15.4001C8.85036 14.7193 8.59825 13.919 8.59825 13.1003C8.59947 12.0028 9.05275 10.9506 9.85864 10.1746C10.6645 9.39857 11.7572 8.96207 12.8969 8.9609ZM12.8969 6.89146C11.6217 6.89146 10.3751 7.2556 9.31476 7.93784C8.25444 8.62008 7.42803 9.58977 6.94002 10.7243C6.45201 11.8588 6.32433 13.1072 6.57311 14.3116C6.8219 15.516 7.43598 16.6223 8.3377 17.4907C9.23942 18.359 10.3883 18.9503 11.639 19.1899C12.8897 19.4295 14.1861 19.3065 15.3643 18.8366C16.5425 18.3666 17.5495 17.5708 18.2579 16.5498C18.9664 15.5287 19.3446 14.3283 19.3446 13.1003C19.3446 11.4536 18.6653 9.87438 17.4561 8.71C16.2469 7.54561 14.6069 6.89146 12.8969 6.89146Z" fill="#2E4049"/>
</svg>
