<svg width="27" height="27" viewBox="0 0 27 27" fill="none" xmlns="http://www.w3.org/2000/svg">
<path d="M13.3173 0C6.08144 0 0.214355 5.86446 0.214355 13.0971C0.214355 18.4587 3.4433 23.0661 8.05858 25.095C8.02348 24.1829 8.05273 23.0836 8.28671 22.0897C8.53824 21.0255 9.97138 14.9506 9.97138 14.9506C9.97138 14.9506 9.55021 14.1145 9.55021 12.8808C9.55021 10.9396 10.6733 9.48955 12.0772 9.48955C13.2705 9.48955 13.8438 10.3841 13.8438 11.4541C13.8438 12.6527 13.0775 14.4419 12.6856 16.1024C12.358 17.494 13.3817 18.6224 14.7563 18.6224C17.2365 18.6224 18.9095 15.4359 18.9095 11.6588C18.9095 8.78792 16.9733 6.6421 13.4577 6.6421C9.48587 6.6421 7.00566 9.60649 7.00566 12.9159C7.00566 14.056 7.34494 14.8629 7.87139 15.4826C8.11122 15.7691 8.14632 15.8861 8.05858 16.2135C7.99423 16.4532 7.85385 17.0321 7.7895 17.266C7.70176 17.5992 7.43268 17.7162 7.13435 17.5934C5.30345 16.845 4.44942 14.8453 4.44942 12.5884C4.44942 8.86978 7.59062 4.40858 13.8145 4.40858C18.8159 4.40858 22.1092 8.02782 22.1092 11.9102C22.1092 17.0496 19.2487 20.8852 15.0371 20.8852C13.6215 20.8852 12.2936 20.1193 11.8374 19.2539C11.8374 19.2539 11.0769 22.2709 10.9132 22.8556C10.6382 23.8671 10.0942 24.8728 9.59701 25.6621C10.8031 26.0178 12.054 26.1989 13.3115 26.2001C20.5473 26.2001 26.4144 20.3356 26.4144 13.103C26.4144 5.87031 20.5532 0 13.3173 0Z" fill="#2E4049"/>
</svg>
