<svg width="29" height="23" viewBox="0 0 29 23" fill="none" xmlns="http://www.w3.org/2000/svg">
<path d="M28.2144 2.66625C27.1779 3.11664 26.0811 3.41336 24.9589 3.54705C26.1383 2.85644 27.0252 1.7593 27.4534 0.461378C26.3383 1.11339 25.1204 1.57088 23.8519 1.81424C23.3177 1.2544 22.6752 0.809036 21.9636 0.505213C21.2519 0.20139 20.4859 0.0454546 19.7121 0.0468847C16.5792 0.0468847 14.0439 2.54536 14.0439 5.62527C14.0417 6.05367 14.0908 6.4808 14.1902 6.89753C11.9437 6.79222 9.74387 6.21914 7.73154 5.21495C5.71921 4.21077 3.93864 2.7976 2.50375 1.06585C2.00036 1.91448 1.73414 2.88273 1.73291 3.86943C1.73291 5.80373 2.74209 7.51352 4.26593 8.51521C3.3631 8.49378 2.47876 8.25483 1.68801 7.81863V7.88771C1.68801 10.5934 3.64534 12.8444 6.23592 13.3567C5.74876 13.4866 5.24676 13.5524 4.74259 13.5524C4.38485 13.5531 4.02792 13.5184 3.677 13.4488C4.39718 15.6652 6.49325 17.2771 8.97618 17.3232C6.95862 18.8781 4.48159 19.7185 1.9344 19.7123C1.48227 19.7116 1.03056 19.6847 0.581543 19.6317C3.1728 21.2863 6.18494 22.1615 9.25942 22.1532C19.7 22.1532 25.4039 13.6503 25.4039 6.27579C25.4039 6.03401 25.3976 5.79222 25.3861 5.55619C26.4932 4.76868 27.4509 3.79005 28.2144 2.66625Z" fill="#2E4049"/>
</svg>
