<?xml version="1.0" encoding="utf-8"?>
<!-- Generator: Adobe Illustrator 25.2.0, SVG Export Plug-In . SVG Version: 6.00 Build 0)  -->
<svg version="1.1" id="Layer_1" xmlns="http://www.w3.org/2000/svg" xmlns:xlink="http://www.w3.org/1999/xlink" x="0px" y="0px"
	 viewBox="0 0 340.9 106" style="enable-background:new 0 0 340.9 106;" xml:space="preserve">
<style type="text/css">
	.st0{fill:#FFFFFF;}
	.st1{fill:#FF6D6D;}
	.st2{fill:#FF6D6D;stroke:#FFFFFF;stroke-miterlimit:10;}
	.st3{font-family:'PlayfairDisplay-SemiBold';}
	.st4{font-size:41.3067px;}
</style>
<g>
	<path class="st0" d="M53.9,104.9c29.1,0,52.6-23.3,52.6-52.1S83,0.7,53.9,0.7C24.8,0.7,1.3,24.1,1.3,52.8S24.8,104.9,53.9,104.9z"
		/>
	<path class="st1" d="M53.9,105.7C24.5,105.7,0.5,82,0.5,52.8C0.5,23.7,24.5,0,53.9,0c29.4,0,53.4,23.7,53.4,52.8
		C107.3,82,83.3,105.7,53.9,105.7z M53.9,1.5C25.3,1.5,2,24.5,2,52.8c0,28.3,23.3,51.4,51.9,51.4s51.9-23,51.9-51.4
		C105.8,24.5,82.5,1.5,53.9,1.5z"/>
	<path class="st1" d="M61.4,6c0.4,0,0.7,0,0.9,0l0,0.2c-0.4,0.1-0.8,0.4-1.1,1l-3.5,7l-0.1,0l-0.1,0l-2.2-7.8
		c-0.1-0.5-0.4-0.8-0.8-0.8l0-0.2c0.3,0.1,0.8,0.1,1.3,0.2c0.7,0.1,1.2,0.1,1.6,0.1l0,0.2c-0.3,0-0.5,0-0.7,0
		c-0.1,0-0.2,0.2-0.2,0.3c0,0.1,0,0.3,0.1,0.6l1.7,6l2.5-4.9c0.2-0.4,0.3-0.7,0.3-1c0-0.3,0-0.4-0.2-0.6c-0.2-0.1-0.4-0.2-0.8-0.3
		l0-0.2C60.5,5.9,60.9,6,61.4,6z"/>
	<path class="st1" d="M71.4,9.1c-0.1,0-0.3,0.1-0.4,0.2c-0.1,0.1-0.2,0.3-0.3,0.6l-2.1,5.6c-0.1,0.3-0.2,0.5-0.2,0.6
		c0,0.1,0,0.3,0.1,0.4c0.1,0.1,0.3,0.2,0.6,0.3L69.1,17c-0.3-0.1-0.8-0.3-1.4-0.6c-0.7-0.3-1.1-0.4-1.5-0.5l0.1-0.2
		c0.3,0.1,0.5,0.1,0.6,0.1c0.1,0,0.3-0.1,0.4-0.2c0.1-0.1,0.2-0.3,0.3-0.6l2.1-5.6c0.1-0.3,0.2-0.5,0.2-0.6c0-0.1,0-0.3-0.1-0.4
		c-0.1-0.1-0.3-0.2-0.6-0.3L69.2,8c0.3,0.1,0.8,0.3,1.4,0.6c0.6,0.2,1.1,0.4,1.5,0.5L72,9.3C71.8,9.2,71.6,9.1,71.4,9.1z"/>
	<path class="st1" d="M84.7,16.9c-0.1,0-0.3,0-0.4,0.1c-0.1,0.1-0.3,0.3-0.5,0.5l-4.3,5.8l-0.2-0.2l0.6-9.3L76,19
		c-0.2,0.3-0.3,0.5-0.4,0.6c-0.1,0.2,0,0.3,0,0.5c0.1,0.1,0.3,0.3,0.5,0.5L76,20.8c-0.2-0.2-0.6-0.4-1-0.8c-0.4-0.3-0.7-0.5-0.9-0.6
		l0.1-0.2c0.2,0.2,0.4,0.3,0.6,0.3c0.1,0,0.3,0,0.4-0.1c0.1-0.1,0.3-0.3,0.5-0.5l3.5-4.7c0.2-0.3,0.3-0.4,0.3-0.6c0-0.1,0-0.3,0-0.4
		c-0.1-0.1-0.2-0.3-0.5-0.5l0.1-0.2c0.2,0.2,0.5,0.4,0.9,0.7c0.3,0.2,0.6,0.4,0.8,0.5l-0.5,7.8l3.1-4.2c0.2-0.3,0.3-0.5,0.4-0.6
		c0-0.2,0-0.3,0-0.5c-0.1-0.1-0.3-0.3-0.5-0.5l0.1-0.2c0.2,0.2,0.6,0.4,1,0.8c0.4,0.3,0.7,0.5,0.9,0.6l-0.1,0.2
		C85,17.1,84.8,17,84.7,16.9z"/>
	<path class="st1" d="M89.7,23.6c0.4-0.3,0.8-0.6,1.2-1c0.4,0.6,1,1.5,2,2.8c0.9,1.3,1.6,2.2,2,2.7c-0.5,0.3-0.9,0.6-1.3,0.8
		c-0.3,0.2-0.6,0.4-0.8,0.6l-0.2-0.2c0.5-0.4,0.8-0.8,1-1c0.2-0.3,0.3-0.5,0.3-0.8c0-0.3-0.2-0.6-0.5-1L93,26l-5.6,4
		c-0.3,0.2-0.5,0.4-0.6,0.5c-0.1,0.1-0.1,0.3-0.1,0.5c0,0.2,0.2,0.4,0.4,0.7l-0.2,0.1c-0.2-0.4-0.6-0.9-1-1.5
		c-0.5-0.7-0.8-1.1-1.1-1.4l0.2-0.1c0.2,0.3,0.4,0.5,0.6,0.6c0.1,0.1,0.3,0.1,0.5,0.1c0.2,0,0.4-0.2,0.7-0.4l5.6-4l-0.4-0.5
		c-0.3-0.4-0.6-0.7-0.8-0.8c-0.3-0.1-0.5-0.1-0.8,0C90,23.9,89.5,24,89,24.4l-0.2-0.2C89,24,89.3,23.8,89.7,23.6z"/>
	<path class="st1" d="M92.5,44.1l-0.2,0.1c-0.1-0.3-0.2-0.7-0.4-1.2c-0.2-0.6-0.4-1.1-0.5-1.5l0.2-0.1c0.1,0.3,0.2,0.5,0.3,0.6
		c0.1,0.1,0.2,0.1,0.4,0.1c0.1,0,0.3-0.1,0.5-0.3l1.7-1.3l-0.9-2.8l-1.4-0.1c-0.4,0-0.8,0-1,0.1c-0.2,0.1-0.4,0.2-0.4,0.4
		c0,0.2,0,0.5,0.1,0.8l-0.2,0.1c-0.1-0.4-0.3-0.9-0.4-1.3c-0.1-0.3-0.2-0.6-0.3-0.8l0.2-0.1c0.2,0.4,0.7,0.5,1.3,0.6l7.9,0.4
		l0.1,0.2L93,43C92.6,43.4,92.4,43.7,92.5,44.1z M97.7,37.8l-3.9-0.2l0.9,2.6L97.7,37.8z"/>
	<path class="st1" d="M93.6,55.3c0.1-0.1,0.2-0.1,0.2-0.2c0-0.1,0-0.1,0-0.1s-0.1-0.1-0.2-0.3c-0.2-0.3-0.4-0.6-0.5-0.9
		c-0.1-0.3-0.2-0.6-0.2-1c0-0.8,0.1-1.5,0.5-2.1c0.3-0.6,0.8-1.1,1.5-1.4c0.6-0.3,1.4-0.5,2.3-0.5c0.9,0,1.8,0.1,2.5,0.5
		c0.7,0.3,1.3,0.8,1.6,1.4c0.4,0.6,0.6,1.3,0.6,2c0,0.3,0,0.6-0.1,0.9c-0.1,0.3-0.1,0.5-0.3,0.7c-0.1,0.2-0.2,0.4-0.4,0.6
		C101,54.9,101,55,101,55c0,0.1,0.3,0.3,0.7,0.3v0.3c-0.5,0-1.5,0-2.8,0v-0.3c0.4-0.1,0.8-0.2,1.1-0.3c0.3-0.1,0.5-0.2,0.7-0.4
		c0.3-0.2,0.5-0.5,0.7-0.9c0.2-0.4,0.2-0.8,0.2-1.2c0-0.5-0.2-1-0.6-1.4c-0.4-0.4-0.9-0.7-1.5-0.9C99,50.1,98.2,50,97.4,50
		c-1,0-1.8,0.1-2.4,0.4c-0.6,0.2-1.1,0.5-1.4,1c-0.3,0.4-0.4,1-0.4,1.6c0,0.5,0.1,0.9,0.4,1.3c0.1,0.1,0.2,0.2,0.3,0.3
		c0.1,0,0.2,0.1,0.4,0.1l1.2,0c0.3,0,0.6,0,0.7-0.1c0.1-0.1,0.3-0.2,0.3-0.4c0.1-0.2,0.1-0.4,0.1-0.8h0.2c0,0.4,0,1,0,1.7
		c0,0.6,0,1,0.1,1.3h-0.2c0-0.2-0.1-0.3-0.1-0.4c0-0.1-0.1-0.1-0.3-0.2c-0.1,0-0.4,0-0.7,0l-2.4,0v-0.2
		C93.3,55.4,93.4,55.4,93.6,55.3z"/>
	<path class="st1" d="M91.8,67.9c-0.4-0.1-0.9-0.3-1.5-0.4c0.2-0.5,0.5-1.4,0.9-2.6c0.5-1.5,0.8-2.6,1-3.3l0.2,0.1
		c-0.1,0.3-0.1,0.5-0.1,0.6c0,0.1,0.1,0.3,0.2,0.3c0.1,0.1,0.3,0.2,0.6,0.3l5.8,1.8c0.3,0.1,0.5,0.1,0.7,0.1c0.1,0,0.3-0.1,0.4-0.2
		c0.1-0.1,0.2-0.3,0.3-0.6l0.2,0.1c-0.3,0.8-0.6,1.9-1.1,3.3c-0.4,1.1-0.6,1.9-0.7,2.4c-0.5-0.2-0.9-0.4-1.4-0.5
		c-0.3-0.1-0.6-0.2-0.7-0.2l0.1-0.3c0.5,0.1,0.9,0.1,1.2,0.1c0.3,0,0.5-0.1,0.7-0.3c0.2-0.2,0.3-0.5,0.5-0.9l0.3-1
		c0.1-0.3,0.1-0.5,0.1-0.6s-0.1-0.3-0.2-0.3c-0.1-0.1-0.3-0.2-0.6-0.3l-2.7-0.9l-0.2,0.8c-0.1,0.4-0.1,0.7,0.1,0.9
		c0.2,0.2,0.4,0.4,0.6,0.5c0.2,0.1,0.4,0.2,0.4,0.2l-0.1,0.3c-0.4-0.1-0.7-0.3-1.1-0.4l-0.6-0.2c-0.4-0.1-1-0.3-1.7-0.4l0.1-0.3
		c0.1,0,0.3,0,0.6,0.1c0.3,0.1,0.6,0,0.8-0.1c0.2-0.1,0.4-0.3,0.5-0.6l0.2-0.8l-2.8-0.9c-0.3-0.1-0.5-0.1-0.7-0.1
		c-0.1,0-0.3,0.1-0.3,0.2c-0.1,0.1-0.2,0.3-0.3,0.6l-0.3,0.8c-0.1,0.5-0.2,0.9-0.1,1.2c0,0.3,0.2,0.5,0.4,0.7
		c0.3,0.2,0.6,0.4,1.2,0.6l-0.1,0.3C92.5,68.1,92.2,68,91.8,67.9z"/>
	<path class="st1" d="M87.6,86c0.1-0.1,0-0.3,0-0.4c-0.1-0.1-0.2-0.3-0.4-0.5l-4.4-4.1c-0.2-0.2-0.4-0.3-0.5-0.4
		c-0.1-0.1-0.3-0.1-0.4,0c-0.1,0.1-0.3,0.2-0.5,0.4l-0.2-0.2c0.3-0.3,0.6-0.6,1.1-1.1c0.5-0.5,0.8-0.9,1.1-1.1l0.2,0.2
		c-0.2,0.2-0.3,0.4-0.4,0.5c-0.1,0.1,0,0.3,0,0.4c0.1,0.1,0.2,0.3,0.4,0.5l4.4,4.1c0.2,0.2,0.4,0.3,0.5,0.4c0.1,0.1,0.3,0.1,0.4,0
		c0.1-0.1,0.3-0.2,0.5-0.4l0.2,0.2c-0.3,0.2-0.6,0.6-1.1,1.1c-0.5,0.5-0.8,0.9-1,1.1l-0.2-0.2C87.4,86.3,87.5,86.1,87.6,86z"/>
	<path class="st1" d="M75.2,95c0.1-0.1,0.1-0.3,0.1-0.4c0-0.2-0.1-0.4-0.3-0.6l-3.7-6.2l0.2-0.1l8.4,4.2l-3.3-5.5
		c-0.2-0.3-0.3-0.5-0.4-0.6c-0.1-0.1-0.3-0.1-0.4-0.1c-0.2,0-0.4,0.1-0.7,0.3L75,85.6c0.3-0.1,0.6-0.3,1.1-0.6
		c0.4-0.3,0.7-0.4,1-0.6l0.1,0.2c-0.2,0.1-0.4,0.3-0.5,0.4c-0.1,0.1-0.1,0.3-0.1,0.4s0.1,0.4,0.3,0.6l3,5.1c0.1,0.3,0.3,0.4,0.4,0.5
		c0.1,0.1,0.2,0.1,0.4,0.1c0.1,0,0.3-0.1,0.6-0.2l0.1,0.2c-0.2,0.1-0.6,0.3-1,0.5c-0.3,0.2-0.6,0.4-0.8,0.5l-7.1-3.5l2.7,4.5
		c0.2,0.3,0.3,0.5,0.4,0.6c0.1,0.1,0.3,0.1,0.4,0.1c0.2,0,0.4-0.1,0.7-0.3l0.1,0.2c-0.3,0.1-0.6,0.3-1.1,0.6c-0.4,0.3-0.7,0.4-1,0.6
		l-0.1-0.2C74.9,95.2,75.1,95.1,75.2,95z"/>
	<path class="st1" d="M67,96.9c0.1,0.5,0.2,1,0.4,1.5c-0.7,0.1-1.8,0.4-3.4,0.7c-1.6,0.3-2.7,0.6-3.3,0.8c-0.1-0.6-0.1-1.1-0.3-1.5
		c-0.1-0.4-0.2-0.7-0.3-1l0.3-0.1c0.2,0.6,0.4,1,0.5,1.3c0.2,0.3,0.4,0.5,0.6,0.5c0.3,0.1,0.7,0.1,1.1,0l0.6-0.1L62,92.2
		c-0.1-0.3-0.1-0.6-0.3-0.7c-0.1-0.1-0.2-0.2-0.4-0.2c-0.2,0-0.4,0-0.8,0.1l0-0.2c0.4-0.1,1-0.2,1.8-0.3c0.8-0.2,1.4-0.3,1.8-0.4
		l0,0.2c-0.4,0.1-0.6,0.2-0.7,0.3S63,91.1,63,91.3c0,0.2,0,0.4,0.1,0.7l1.5,6.7l0.6-0.1c0.5-0.1,0.8-0.3,1.1-0.4
		c0.2-0.2,0.3-0.4,0.4-0.8s0-0.8-0.1-1.4l0.3-0.1C66.8,96.2,66.9,96.5,67,96.9z"/>
	<path class="st1" d="M47.2,92.8c0-0.5,0.1-1,0.1-1.5c0.6,0.1,1.5,0.2,2.8,0.3c1.5,0.1,2.7,0.2,3.5,0.3l0,0.2c-0.3,0-0.5,0-0.6,0
		c-0.1,0-0.2,0.1-0.3,0.3c-0.1,0.1-0.1,0.4-0.1,0.6l-0.5,6c0,0.3,0,0.5,0,0.7c0,0.1,0.1,0.3,0.3,0.3c0.1,0.1,0.3,0.1,0.6,0.1l0,0.2
		c-0.8-0.1-2-0.2-3.5-0.3c-1.2-0.1-2-0.2-2.5-0.2c0.1-0.5,0.2-1,0.2-1.4c0-0.3,0-0.6,0-0.8l0.3,0c0,0.5,0,0.9,0.1,1.2
		c0.1,0.3,0.2,0.5,0.4,0.6c0.2,0.1,0.5,0.2,0.9,0.3l1,0.1c0.3,0,0.5,0,0.6,0c0.1,0,0.2-0.1,0.3-0.3c0.1-0.1,0.1-0.4,0.1-0.6l0.3-2.8
		l-0.8-0.1c-0.4,0-0.7,0.1-0.8,0.3c-0.1,0.2-0.3,0.5-0.3,0.7c-0.1,0.3-0.1,0.4-0.1,0.5l-0.3,0c0.1-0.4,0.1-0.8,0.1-1.1l0-0.6
		c0-0.4,0.1-1,0.1-1.7l0.3,0c0,0.1,0,0.3,0,0.6c0,0.3,0.1,0.6,0.3,0.8c0.2,0.2,0.4,0.3,0.7,0.3l0.8,0.1l0.3-2.9c0-0.3,0-0.5,0-0.7
		c0-0.1-0.1-0.2-0.3-0.3c-0.1-0.1-0.3-0.1-0.6-0.1l-0.9-0.1c-0.5,0-0.9,0-1.2,0.1c-0.3,0.1-0.5,0.3-0.6,0.6
		c-0.1,0.3-0.3,0.7-0.4,1.3l-0.3,0C47.2,93.4,47.2,93.1,47.2,92.8z"/>
	<path class="st1" d="M35.5,87.3c0.2,0,0.5,0,0.7,0.1c0.3,0.1,0.5,0.3,0.6,0.6c0.1,0.3,0.1,0.6,0.1,1.1l-0.2,1.2
		c-0.1,0.4-0.1,0.8-0.1,1c0,0.2,0,0.5,0.1,0.6c0.1,0.2,0.3,0.3,0.6,0.5l1.1,0.4l1.1-2.6c0.1-0.3,0.2-0.5,0.2-0.6
		c0-0.1,0-0.3-0.1-0.4c-0.1-0.1-0.3-0.2-0.6-0.3l0.1-0.2c0.3,0.2,0.8,0.4,1.4,0.6c0.6,0.3,1.1,0.5,1.5,0.6l-0.1,0.2
		C41.6,90,41.4,90,41.2,90c-0.1,0-0.3,0-0.4,0.2c-0.1,0.1-0.2,0.3-0.3,0.6l-2.3,5.5c-0.1,0.3-0.2,0.5-0.2,0.6s0,0.3,0.1,0.4
		c0.1,0.1,0.3,0.2,0.6,0.3l-0.1,0.2c-0.3-0.1-0.8-0.4-1.4-0.6c-0.3-0.1-0.6-0.3-1-0.4c-0.4-0.1-0.6-0.2-0.7-0.3
		c-0.6-0.3-1-0.5-1.4-0.9c-0.3-0.3-0.5-0.7-0.6-1.1c-0.1-0.4,0-0.8,0.1-1.1c0.1-0.3,0.3-0.6,0.6-0.8c0.3-0.2,0.6-0.4,1-0.5
		c0.4-0.1,0.9-0.1,1.5,0.1l-0.1-0.1c-0.3-0.2-0.6-0.4-0.7-0.6c-0.1-0.2-0.3-0.4-0.3-0.6c0-0.2,0-0.5,0-0.9l0.2-1.3
		c0-0.3,0.1-0.4,0.1-0.6s0-0.3-0.1-0.4c0-0.1-0.1-0.2-0.2-0.2c-0.1-0.1-0.2-0.1-0.3,0c-0.1,0-0.3,0.1-0.4,0.2l-0.1-0.2
		C35,87.4,35.3,87.3,35.5,87.3z M36.2,92.5c-0.4,0-0.6,0.2-0.9,0.4c-0.2,0.2-0.4,0.5-0.6,0.9c-0.3,0.6-0.3,1.1-0.1,1.6
		c0.2,0.4,0.6,0.8,1.2,1.1c0.2,0.1,0.4,0.1,0.6,0.1c0.1,0,0.3-0.1,0.4-0.2c0.1-0.1,0.2-0.3,0.3-0.6l1.2-2.7l-0.8-0.3
		C37,92.6,36.6,92.5,36.2,92.5z"/>
	<path class="st1" d="M23.9,89.3c0.1,0,0.3,0,0.4-0.1c0.1-0.1,0.3-0.2,0.5-0.5l3.7-4.7c0.2-0.2,0.3-0.4,0.4-0.6c0-0.1,0-0.3,0-0.4
		c-0.1-0.1-0.2-0.3-0.4-0.5l0.1-0.2c0.3,0.3,0.7,0.6,1.2,1c0.6,0.4,1,0.7,1.3,0.9l-0.1,0.2c-0.2-0.2-0.4-0.3-0.6-0.3
		c-0.1,0-0.3,0-0.4,0.1c-0.1,0.1-0.3,0.2-0.5,0.5l-3.7,4.7c-0.2,0.2-0.3,0.4-0.4,0.6c0,0.1,0,0.3,0,0.4c0.1,0.1,0.2,0.3,0.4,0.5
		l-0.1,0.2c-0.3-0.2-0.7-0.5-1.2-1c-0.5-0.4-0.9-0.7-1.2-0.9l0.1-0.2C23.6,89.1,23.8,89.2,23.9,89.3z"/>
	<path class="st1" d="M14.3,78.8c-0.1-0.7,0.1-1.3,0.4-2c0.4-0.6,0.9-1.2,1.6-1.8c0.7-0.5,1.5-0.9,2.2-1c0.8-0.1,1.5-0.1,2.1,0.2
		c0.7,0.3,1.2,0.7,1.6,1.3c0.5,0.6,0.7,1.3,0.8,1.9c0.1,0.7-0.1,1.3-0.4,2c-0.4,0.6-0.9,1.2-1.6,1.8c-0.7,0.5-1.5,0.9-2.2,1
		c-0.7,0.1-1.5,0.1-2.1-0.2c-0.7-0.3-1.2-0.7-1.6-1.3C14.6,80.1,14.3,79.5,14.3,78.8z M16.5,81.4c0.5,0.1,1.1,0.1,1.8-0.1
		c0.7-0.2,1.3-0.5,2-1c0.7-0.5,1.2-1,1.6-1.6c0.4-0.6,0.6-1.1,0.6-1.7c0-0.5-0.1-1-0.4-1.4c-0.3-0.4-0.7-0.7-1.3-0.8
		c-0.5-0.1-1.1-0.1-1.8,0.1c-0.7,0.2-1.3,0.5-2,1c-0.7,0.5-1.2,1-1.6,1.6c-0.4,0.6-0.6,1.1-0.6,1.7c0,0.5,0.1,1,0.4,1.4
		C15.5,81,16,81.3,16.5,81.4z"/>
	<path class="st1" d="M15.4,61c0.2,0.1,0.3,0.4,0.4,0.6c0.1,0.3,0.1,0.6,0,0.9c-0.1,0.3-0.4,0.5-0.8,0.8l-1.1,0.6
		c-0.4,0.2-0.7,0.4-0.8,0.5s-0.3,0.3-0.4,0.5c-0.1,0.2-0.1,0.4,0,0.7l0.3,1.1l2.7-0.8c0.3-0.1,0.5-0.2,0.6-0.3
		c0.1-0.1,0.2-0.2,0.2-0.3c0-0.1,0-0.4-0.1-0.6l0.2-0.1c0.1,0.4,0.2,0.9,0.4,1.5c0.2,0.7,0.4,1.2,0.5,1.5l-0.2,0.1
		c-0.1-0.3-0.2-0.5-0.3-0.6c-0.1-0.1-0.2-0.2-0.4-0.2c-0.1,0-0.4,0-0.7,0.1l-5.8,1.8c-0.3,0.1-0.5,0.2-0.6,0.3
		c-0.1,0.1-0.2,0.2-0.2,0.3c0,0.1,0,0.4,0.1,0.6l-0.2,0.1c-0.1-0.3-0.2-0.8-0.4-1.4c-0.1-0.3-0.2-0.6-0.3-1
		c-0.1-0.4-0.2-0.6-0.3-0.7c-0.2-0.6-0.3-1.1-0.2-1.6c0-0.5,0.2-0.9,0.4-1.2c0.2-0.3,0.6-0.5,0.9-0.6c0.3-0.1,0.6-0.1,1-0.1
		c0.4,0,0.7,0.2,1.1,0.5c0.4,0.3,0.7,0.6,0.9,1.2l0-0.1c0-0.4-0.1-0.7,0-0.9c0.1-0.3,0.2-0.5,0.3-0.6c0.2-0.2,0.4-0.4,0.7-0.5
		l1.1-0.6c0.2-0.1,0.4-0.2,0.5-0.3c0.1-0.1,0.2-0.2,0.2-0.3c0-0.1,0-0.2,0-0.3c0-0.1-0.1-0.2-0.2-0.3c-0.1-0.1-0.2-0.1-0.4-0.2
		l0.1-0.2C15,60.8,15.3,60.9,15.4,61z M11.9,65c-0.3-0.2-0.6-0.4-0.9-0.4c-0.3,0-0.7,0-1.1,0.1c-0.6,0.2-1.1,0.5-1.3,0.9
		c-0.2,0.4-0.2,0.9,0,1.6c0.1,0.2,0.2,0.4,0.3,0.5c0.1,0.1,0.2,0.2,0.4,0.2c0.1,0,0.4,0,0.6-0.1l2.9-0.9l-0.2-0.8
		C12.3,65.6,12.1,65.2,11.9,65z"/>
	<path class="st1" d="M14.3,47c0.6-0.3,0.9-0.7,1.1-1.4c0-0.3,0-0.5,0-0.8c-0.1-0.3-0.2-0.5-0.4-0.7c-0.2-0.2-0.5-0.3-0.9-0.4
		c-0.3-0.1-0.6,0-0.9,0.1c-0.3,0.1-0.5,0.3-0.8,0.5c-0.3,0.2-0.6,0.5-0.9,0.9c-0.4,0.4-0.7,0.8-1,1c-0.3,0.3-0.6,0.4-0.9,0.6
		c-0.3,0.1-0.7,0.1-1.2,0.1c-0.4-0.1-0.8-0.3-1.1-0.5c-0.3-0.3-0.5-0.6-0.6-0.9c-0.1-0.4-0.1-0.8,0-1.2c0-0.3,0.1-0.4,0.2-0.6
		c0.1-0.2,0.1-0.3,0.2-0.4c0.1-0.1,0.2-0.2,0.3-0.3c0.1-0.2,0.2-0.3,0.3-0.4c0-0.1,0-0.1-0.1-0.2c-0.1-0.1-0.2-0.1-0.4-0.2l0-0.3
		c0.5,0.1,1.3,0.3,2.4,0.5l0,0.3c-0.4,0-0.8,0-1.2,0.1c-0.4,0.1-0.7,0.2-1,0.5c-0.3,0.2-0.4,0.6-0.5,1c-0.1,0.3,0,0.5,0,0.8
		c0.1,0.3,0.2,0.4,0.4,0.6c0.2,0.2,0.4,0.3,0.7,0.3c0.4,0.1,0.8,0,1.1-0.2c0.3-0.2,0.6-0.5,0.9-0.8c0.3-0.3,0.5-0.5,0.6-0.6
		c0.4-0.4,0.8-0.8,1-1c0.3-0.3,0.6-0.4,0.9-0.5c0.3-0.1,0.7-0.1,1.1-0.1c0.5,0.1,0.9,0.3,1.2,0.6c0.3,0.3,0.5,0.6,0.6,1
		c0.1,0.4,0.1,0.9,0,1.3c-0.1,0.4-0.2,0.7-0.3,0.9c-0.1,0.2-0.3,0.4-0.5,0.6c-0.1,0.2-0.2,0.3-0.3,0.4c0,0.1,0,0.1,0.1,0.2
		c0.1,0.1,0.2,0.1,0.4,0.2l0,0.3c-0.4-0.1-1.4-0.3-2.9-0.6l0-0.3C13,47.4,13.7,47.3,14.3,47z"/>
	<path class="st1" d="M11.3,34.6c-0.4-0.2-0.9-0.4-1.4-0.6c0.3-0.6,0.9-1.6,1.6-3c0.7-1.4,1.3-2.4,1.5-3c0.5,0.3,0.9,0.6,1.3,0.8
		c0.4,0.2,0.7,0.3,0.9,0.4l-0.1,0.3c-0.6-0.2-1-0.4-1.4-0.4c-0.3-0.1-0.6,0-0.8,0.1c-0.2,0.1-0.5,0.4-0.7,0.9L12,30.6l6.2,3.2
		c0.3,0.2,0.5,0.2,0.7,0.3c0.2,0,0.3,0,0.4-0.1c0.1-0.1,0.3-0.3,0.5-0.6l0.2,0.1c-0.2,0.4-0.5,0.9-0.9,1.6c-0.4,0.7-0.6,1.3-0.8,1.6
		l-0.2-0.1c0.1-0.3,0.3-0.6,0.3-0.7c0-0.2,0-0.3-0.1-0.5c-0.1-0.1-0.3-0.3-0.6-0.4l-6.2-3.2l-0.3,0.6c-0.2,0.4-0.3,0.8-0.3,1.1
		c0,0.3,0.1,0.5,0.4,0.8c0.2,0.2,0.6,0.5,1.1,0.9l-0.1,0.3C12,35,11.7,34.8,11.3,34.6z"/>
	<path class="st1" d="M21.8,17.7c0.3-0.3,0.5-0.5,0.6-0.7l0.2,0.2c-0.1,0.1-0.1,0.3-0.1,0.5c0,0.2,0.1,0.5,0.2,0.9l1.4,4l1.6,1.5
		c0.2,0.2,0.4,0.4,0.5,0.4c0.1,0.1,0.3,0.1,0.4,0c0.1-0.1,0.3-0.2,0.5-0.4l0.2,0.2c-0.3,0.3-0.7,0.6-1.1,1.1
		c-0.5,0.5-0.8,0.9-1.1,1.1l-0.2-0.2c0.2-0.2,0.3-0.4,0.4-0.5c0.1-0.1,0.1-0.3,0-0.4c-0.1-0.1-0.2-0.3-0.4-0.5l-1.3-1.3l-5-1.4
		c-0.3-0.1-0.5-0.1-0.7-0.1c-0.1,0-0.3,0.1-0.3,0.1l-0.2-0.2c0.2-0.2,0.5-0.4,0.8-0.7c0.6-0.6,1-1,1.2-1.2l0.2,0.2
		c-0.4,0.4-0.5,0.7-0.3,0.9c0.1,0.1,0.2,0.1,0.4,0.2l4.2,1.3l-1.1-3.3c-0.2-0.5-0.3-0.8-0.5-1c-0.2-0.2-0.3-0.2-0.5-0.1
		c-0.2,0.1-0.4,0.2-0.7,0.5l-0.2-0.2C21.2,18.3,21.5,18,21.8,17.7z"/>
	<path class="st1" d="M30.8,11.7c-0.1,0.1-0.1,0.2-0.1,0.4c0,0.1,0.1,0.4,0.3,0.6l2.9,5.3c0.1,0.3,0.3,0.4,0.4,0.5
		c0.1,0.1,0.2,0.1,0.4,0.1c0.1,0,0.3-0.1,0.6-0.2L36,18c0.4-0.2,0.8-0.5,0.9-0.7c0.2-0.3,0.2-0.5,0.2-0.9c0-0.3-0.2-0.8-0.4-1.3
		l0.3-0.1c0.1,0.2,0.3,0.5,0.4,0.9c0.2,0.4,0.5,0.8,0.8,1.3c-0.5,0.2-1.3,0.7-2.5,1.3c-1.4,0.7-2.4,1.3-3.1,1.7l-0.1-0.2
		c0.3-0.1,0.4-0.3,0.5-0.4c0.1-0.1,0.1-0.2,0.1-0.4c0-0.1-0.1-0.4-0.3-0.6L30,13.3c-0.1-0.3-0.3-0.4-0.4-0.5
		c-0.1-0.1-0.2-0.1-0.4-0.1c-0.1,0-0.3,0.1-0.6,0.2l-0.1-0.2c0.3-0.1,0.8-0.4,1.4-0.7c0.6-0.3,1-0.6,1.3-0.8l0.1,0.2
		C31.1,11.5,30.9,11.6,30.8,11.7z"/>
	<path class="st1" d="M49,12.7c0.1,0.4,0.2,0.9,0.4,1.5c-0.6,0.1-1.5,0.3-2.7,0.5c-1.5,0.3-2.7,0.5-3.5,0.7l0-0.2
		c0.3-0.1,0.5-0.1,0.6-0.2c0.1-0.1,0.2-0.2,0.2-0.3c0-0.1,0-0.4-0.1-0.7l-1.2-5.9c-0.1-0.3-0.1-0.5-0.2-0.6
		c-0.1-0.1-0.2-0.2-0.3-0.2c-0.1,0-0.4,0-0.6,0l0-0.2c0.8-0.1,2-0.3,3.5-0.6c1.2-0.2,2-0.4,2.5-0.5c0,0.5,0.1,1,0.2,1.4
		c0.1,0.3,0.1,0.5,0.2,0.7L47.6,8c-0.2-0.5-0.3-0.9-0.4-1.1c-0.1-0.2-0.3-0.4-0.6-0.5c-0.2-0.1-0.6-0.1-1,0l-1,0.2
		c-0.3,0.1-0.5,0.1-0.6,0.2c-0.1,0.1-0.2,0.2-0.2,0.3c0,0.1,0,0.4,0.1,0.7l0.6,2.8l0.8-0.2c0.4-0.1,0.6-0.3,0.7-0.5
		C46,9.7,46,9.5,46,9.2c0-0.3,0-0.4,0-0.5l0.3-0.1c0,0.4,0.1,0.8,0.2,1.1l0.1,0.6c0.1,0.4,0.2,1,0.4,1.7l-0.3,0.1
		c0-0.1-0.1-0.2-0.2-0.6c-0.1-0.3-0.3-0.5-0.5-0.7c-0.2-0.1-0.5-0.2-0.8-0.1l-0.8,0.1l0.6,2.8c0.1,0.3,0.1,0.5,0.2,0.6
		c0.1,0.1,0.2,0.2,0.3,0.2c0.1,0,0.4,0,0.6-0.1l0.9-0.2c0.5-0.1,0.9-0.2,1.1-0.4c0.2-0.2,0.4-0.4,0.4-0.7c0.1-0.3,0.1-0.8,0-1.3
		l0.3-0.1C48.9,12,48.9,12.3,49,12.7z"/>
	<path class="st2" d="M38.9,69c-0.7-0.9-1.3-1.9-1.8-3c-0.5-1.1-0.9-2.2-1.3-3.4c-0.7-5.1-0.7-10-0.1-14.7c0.6-4.8,1.7-9.5,3.1-14.1
		c0.2-0.5,0.8-0.8,1.6-0.8c0.8,0,1.6,0.2,2.4,0.5c0.8,0.4,1.5,0.8,2,1.4c0.5,0.6,0.6,1.2,0.4,1.8c-0.4,0.9-0.9,2.2-1.3,3.8
		c-0.4,1.6-0.9,3.4-1.3,5.3c-0.4,1.9-0.7,4-1,6.1c-0.3,2.1-0.5,4.1-0.7,6.1s-0.2,3.7-0.1,5.2c0.1,1.6,0.3,2.8,0.7,3.7
		c1.9-2.5,3.6-5.1,5.2-7.7c1.6-2.7,3-5.4,4.4-8.1c1.4-2.7,2.7-5.5,3.9-8.3c1.2-2.8,2.5-5.6,3.6-8.3c0.6-1.4,1.2-2.8,1.8-4.4
		c0.6-1.5,1.3-2.9,2.3-4c0.4-0.4,0.7-0.5,0.9-0.4c0.2,0.1,0.4,0.3,0.4,0.7s0.1,0.7,0.1,1.1c0,0.4,0,0.7,0,0.9
		c-0.3,1.8-0.5,3.6-0.7,5.4c-0.2,1.8-0.6,3.5-1.3,5.2c-1,2.6-2.1,5.2-3.2,7.8c-1.1,2.6-2.3,5.1-3.5,7.6c-1.3,2.5-2.6,4.9-4.1,7.3
		c-1.5,2.4-3,4.6-4.8,6.7c-1.4,1.7-2.7,2.6-4,2.7C41.3,71.1,40.1,70.4,38.9,69z"/>
	<path class="st2" d="M63.6,62.3c-0.8-1.1-1.6-2.2-2.4-3.4c-0.8-1.1-1.2-2.4-1.2-3.8c0-1.5,0.4-3,1.3-4.4c0.9-1.4,1.9-2.5,3.1-3.3
		c0.5-0.3,1-0.6,1.5-0.8c0.5-0.2,1-0.2,1.6,0.1c0.2,0.1,0.5,0.2,0.7,0.3c0.3,0.1,0.5,0.1,0.7,0.2c0.2,0.1,0.4,0.2,0.7,0.4
		c0.2,0.2,0.4,0.4,0.4,0.6c0,1.1,0,2,0.1,2.7c0.1,0.7,0.1,1.3,0.3,1.8c0.1,0.5,0.2,0.9,0.4,1.3c0.1,0.4,0.2,0.8,0.4,1.2
		c0.1,0.4,0.1,0.7-0.1,1c-0.1,0.3-0.4,0.3-0.9,0.1c-0.9-0.3-1.5-0.9-2-1.9c-0.4-1-0.7-1.8-0.9-2.6c0-0.2-0.1-0.4-0.3-0.8
		c-0.2-0.4-0.3-0.7-0.3-0.8c-0.3-0.1-0.7,0-1.1,0.3c-0.4,0.3-0.8,0.7-1.2,1.2c-0.3,0.5-0.6,1.1-0.7,1.8c-0.1,0.7,0,1.3,0.4,2
		c0.2,0.2,0.4,0.5,0.7,0.9c0.3,0.3,0.6,0.7,0.9,1c0.3,0.4,0.6,0.7,0.9,1c0.3,0.3,0.6,0.6,0.7,0.8c0.2,0.2,0.4,0.4,0.5,0.4
		c0.1,0,0.3,0,0.6-0.1c0.4-0.2,1-0.5,1.8-0.8c0.8-0.3,1.7-0.6,2.6-0.9c0.9-0.3,1.8-0.6,2.6-0.8c0.8-0.2,1.4-0.3,1.9-0.3
		c0.3,0,0.5,0.1,0.6,0.3c0.1,0.1,0.1,0.3-0.1,0.5c-0.2,0.2-0.4,0.4-0.6,0.6c-0.3,0.2-0.5,0.4-0.8,0.5c-0.3,0.2-0.5,0.3-0.5,0.3
		c-0.7,0.4-1.5,0.8-2.6,1.3c-1,0.5-1.9,1-2.7,1.4c-0.1,0.1-0.2,0.2-0.4,0.2c-0.2,0.1-0.4,0.2-0.5,0.2c0.5,1.1,0.8,2,1,2.8
		c0.2,0.8,0.3,1.5,0.2,2.2c-0.1,0.7-0.2,1.4-0.4,2.2c-0.2,0.7-0.6,1.6-1,2.5c-0.6,0.9-1.1,1.8-1.7,2.6s-1.2,1.6-2,2.3
		c-0.7,0.7-1.5,1.2-2.3,1.6c-0.8,0.4-1.8,0.6-2.8,0.6c-0.6,0-1.1-0.1-1.6-0.2c-0.5-0.1-1-0.4-1.3-0.9c-0.9-1-1.4-2.1-1.5-3.2
		c-0.1-1.2,0-2.3,0.3-3.5c0.2-0.7,0.5-1.4,0.9-2c0.9-1.5,1.8-2.8,2.9-3.8C61.3,64.2,62.4,63.2,63.6,62.3z M65.6,65
		c-0.4,0.4-1,1.1-1.8,1.9c-0.8,0.8-1.5,1.7-2.1,2.6c-0.7,0.9-1.2,1.9-1.6,2.8c-0.4,0.9-0.5,1.7-0.3,2.4c0.8-0.4,1.6-0.9,2.5-1.8
		s1.6-1.7,2.2-2.7c0.6-1,1.1-1.9,1.3-2.9C66.1,66.4,66,65.6,65.6,65z"/>
	<path class="st1" d="M53.9,86.3c-18.6,0-33.8-15-33.8-33.5s15.2-33.5,33.8-33.5s33.8,15,33.8,33.5S72.5,86.3,53.9,86.3z M53.9,20.9
		c-17.8,0-32.3,14.3-32.3,32s14.5,32,32.3,32s32.3-14.3,32.3-32S71.7,20.9,53.9,20.9z"/>
</g>
<text transform="matrix(1 0 0 1 123.4814 41.5166)"><tspan x="0" y="0" class="st1 st3 st4">STYLE </tspan><tspan x="0" y="49.6" class="st1 st3 st4">INTERIOR</tspan></text>
</svg>
